<svg width="70" height="70" xmlns="http://www.w3.org/2000/svg" xmlns:xlink="http://www.w3.org/1999/xlink" xml:space="preserve" overflow="hidden"><defs><clipPath id="clip0"><rect x="427" y="279" width="70" height="70"/></clipPath><clipPath id="clip1"><path d="M464.214 279.121 496.385 311.293 459.388 348.291 427.216 316.119Z" fill-rule="evenodd" clip-rule="evenodd"/></clipPath><clipPath id="clip2"><path d="M464.214 279.121 496.385 311.293 459.388 348.291 427.216 316.119Z" fill-rule="evenodd" clip-rule="evenodd"/></clipPath><clipPath id="clip3"><path d="M448.538 258.729 516.42 326.612 448.538 394.494 380.655 326.612Z" fill-rule="evenodd" clip-rule="evenodd"/></clipPath></defs><g clip-path="url(#clip0)" transform="translate(-427 -279)"><g clip-path="url(#clip1)"><g clip-path="url(#clip2)"><g clip-path="url(#clip3)"><path d="M421.724 357.712 474.587 304.849 474.587 317.435C474.587 319.076 475.916 320.405 477.557 320.405 479.197 320.405 480.527 319.076 480.527 317.435L480.521 297.642C480.56 296.041 479.294 294.711 477.692 294.672 477.645 294.671 477.598 294.671 477.551 294.672L457.766 294.672C456.165 294.633 454.835 295.899 454.796 297.5 454.795 297.548 454.795 297.595 454.796 297.642 454.757 299.243 456.023 300.573 457.625 300.612 457.672 300.613 457.719 300.613 457.766 300.612L470.346 300.612 417.485 353.473C416.313 354.644 416.313 356.544 417.485 357.715 418.656 358.887 420.556 358.887 421.727 357.715Z" fill="#FFC000"/></g></g></g></g></svg>