<svg width="46" height="52" xmlns="http://www.w3.org/2000/svg" xmlns:xlink="http://www.w3.org/1999/xlink" xml:space="preserve" overflow="hidden"><defs><clipPath id="clip0"><rect x="439" y="288" width="46" height="52"/></clipPath></defs><g clip-path="url(#clip0)" transform="translate(-439 -288)"><path d="M50.717 88.4037 50.717 14.1047 59.5623 22.9499C60.7149 24.1026 62.5838 24.1026 63.7364 22.9499 64.8891 21.7973 64.8891 19.9284 63.7364 18.7758L49.8226 4.86985C48.7248 3.71719 46.9004 3.67269 45.7478 4.77047 45.7139 4.80279 45.6807 4.83592 45.6484 4.86985L31.7445 18.7738C30.5918 19.8716 30.5473 21.6959 31.6451 22.8485 31.6774 22.8824 31.7106 22.9156 31.7445 22.9479 32.8423 24.1006 34.6666 24.1451 35.8193 23.0473 35.8531 23.015 35.8863 22.9818 35.9186 22.9479L44.7589 14.1077 44.7589 88.4037C44.7589 90.0503 46.0937 91.3853 47.7404 91.3853 49.3872 91.3853 50.722 90.0503 50.722 88.4037Z" fill="#196B24" transform="matrix(1.01731 0 0 1 413.214 284.685)"/></g></svg>